<svg width="" height="" viewBox="0 0 480 457" fill="none" xmlns="http://www.w3.org/2000/svg">
    <path d="M0.162804 157.172C4.9797 118.993 21.036 68.6225 62.4613 30.1225C103.566 -8.05658 165.864 -9.66073 210.822 23.7059C223.667 33.3309 234.264 44.56 243.256 57.3934C246.788 62.5267 249.678 63.4892 254.816 59.3184C286.929 31.7267 337.667 46.1642 347.943 89.4767C350.512 100.385 357.577 92.685 361.751 90.76C390.01 77.9267 417.948 82.7392 440.427 103.593C458.41 120.277 470.292 140.489 475.751 163.91C486.348 209.468 477.999 250.214 440.748 282.297C427.261 294.168 410.563 298.66 393.864 302.51C373.633 307.322 353.402 311.493 335.74 324.326C315.509 338.764 304.27 358.976 295.92 381.435C282.433 418.972 257.064 444.318 217.565 453.943C167.47 466.135 115.126 441.11 88.4726 392.343C78.1965 373.414 73.0585 353.201 72.0951 331.385C71.774 320.476 70.8107 309.889 69.205 299.301C67.2782 285.506 61.498 274.276 48.974 266.897C13.329 246.364 -1.76396 214.281 0.162804 157.172Z" fill="#F9F9F9"/>
</svg>
