<svg width="" height="" viewBox="0 0 1440 160" fill="none" xmlns="http://www.w3.org/2000/svg">
    <path d="M0 160L48 140C96 120 192 80.0005 288 66.688C384 53.1255 480 66.8755 576 86.688C672 106.875 768 133.125 864 133.313C960 133.125 1056 106.875 1152 103.313C1248 100 1344 120 1392 130L1440 140V0.000488281H1392C1344 0.000488281 1248 0.000488281 1152 0.000488281C1056 0.000488281 960 0.000488281 864 0.000488281C768 0.000488281 672 0.000488281 576 0.000488281C480 0.000488281 384 0.000488281 288 0.000488281C192 0.000488281 96 0.000488281 48 0.000488281H0V160Z" fill="#F9F9F9"/>
</svg>