<svg width="" height="" viewBox="0 0 206 60" fill="none" xmlns="http://www.w3.org/2000/svg">
    <path d="M190.647 39.2089C190.647 40.3601 191.575 41.2884 192.801 41.3255C194.101 41.3626 195.103 40.4715 195.103 39.2832C195.103 38.0949 194.138 37.1666 192.838 37.1666C191.65 37.1666 190.684 38.0578 190.647 39.2089Z" fill="#7BEADB"/>
    <path d="M202.594 15.7352C200.944 15.7352 199.624 17.11 199.624 18.7598C199.624 20.5196 201.054 21.9494 202.759 21.8394C204.409 21.7844 205.674 20.3546 205.619 18.7048C205.564 17.055 204.244 15.7352 202.594 15.7352Z" fill="#F27776"/>
    <path d="M138.207 51.7499C139.857 51.6949 141.177 50.3201 141.067 48.6703C140.957 47.0205 139.527 45.5907 137.987 45.6457C136.502 45.7007 135.072 47.2955 135.072 48.8353C135.127 50.4851 136.557 51.8049 138.207 51.7499Z" fill="#7BEADB"/>
    <path d="M150.32 4.56445C148.78 4.50945 147.35 5.93927 147.295 7.58907C147.24 9.23886 148.505 10.6137 150.21 10.6687C151.915 10.7237 153.18 9.45884 153.235 7.69906C153.29 6.15925 151.86 4.61944 150.32 4.56445Z" fill="#FED15D"/>
    <path d="M166.558 59.6183C168.372 59.6733 169.527 58.5735 169.527 56.7587C169.582 54.8889 168.482 53.7341 166.723 53.6791C164.908 53.6241 163.753 54.7239 163.698 56.5387C163.698 58.4085 164.743 59.5633 166.558 59.6183Z" fill="#FED05D"/>
    <path d="M156.814 2.97976C156.759 4.79453 157.859 6.00439 159.618 6.05938C161.378 6.11437 162.643 4.90452 162.643 3.14474C162.698 1.43995 161.433 0.120116 159.783 0.0651232C158.078 0.0101301 156.869 1.16499 156.814 2.97976Z" fill="#474BEF"/>
    <path d="M177.161 4.68454C177.216 5.34446 177.491 5.89439 178.261 5.8394C179.031 5.78441 179.251 5.23448 179.196 4.57456C179.141 3.96963 178.866 3.52969 178.206 3.52969C177.491 3.47469 177.216 3.96963 177.161 4.68454Z" fill="#C6C6C6"/>
    <path d="M14.176 18C14.232 19.96 14.26 23.124 14.288 25.644C13.28 25.672 12.16 25.7 11.04 25.7C9.92 25.7 8.8 25.672 7.792 25.644C7.792 23.124 7.82 19.96 7.904 18H0.82C0.932 20.884 0.932 24.048 0.932 28.5C0.932 32.952 0.932 35.976 0.82 39H7.904C7.82 36.956 7.792 33.932 7.792 31.496C8.8 31.468 9.92 31.468 11.04 31.468C12.16 31.468 13.28 31.468 14.288 31.496C14.26 33.932 14.232 36.984 14.176 39H21.26C21.176 35.976 21.148 32.952 21.148 28.5C21.148 24.048 21.176 20.884 21.26 18H14.176ZM33.1138 25.224C34.9058 25.224 35.5778 26.008 35.5778 28.136C35.5778 28.416 35.5778 28.668 35.5498 28.892C33.7298 28.92 31.9098 28.92 30.2858 28.892C30.5098 25.896 31.4058 25.224 33.1138 25.224ZM38.3218 33.176C37.2018 33.176 36.2218 33.148 35.5498 33.092C35.5218 34.52 34.9898 35.22 33.1978 35.22C31.2378 35.22 30.3978 34.352 30.2578 31.608C31.3778 31.58 32.9458 31.58 34.6538 31.58C36.9778 31.58 39.5818 31.58 41.3178 31.636C41.4018 30.88 41.4578 29.76 41.4578 28.332C41.4578 23.74 39.6098 21.192 33.2258 21.192C27.2058 21.192 23.9578 23.6 23.9578 30.32C23.9578 36.704 26.9818 39.364 33.0298 39.364C40.1418 39.364 41.5418 37.152 41.4018 33.092C40.5338 33.148 39.4978 33.176 38.3218 33.176ZM55.2133 21.556C55.0173 22.704 54.2333 25.924 53.5893 28.696C53.1973 30.432 52.8613 31.972 52.5813 33.232H52.4413C52.2173 31.972 51.9653 30.432 51.5453 28.724C50.9013 25.952 50.1173 22.816 49.8933 21.556H42.7533C44.0133 25.364 46.5053 34.044 47.2053 36.2C47.9053 36.144 49.5573 36.144 51.4893 36.172C51.0133 37.516 50.2573 37.964 48.6053 37.964C46.9813 37.964 45.1893 37.74 43.8453 37.236C43.7613 38.188 43.1733 41.52 43.0333 42.416C44.6293 42.864 46.2813 43.228 48.8573 43.228C54.0373 43.228 56.0253 41.072 57.5373 36.172C58.4333 33.372 60.7013 24.888 61.7933 21.556H55.2133ZM88.6013 39C88.4893 35.976 88.4613 32.924 88.4613 28.472C88.4613 23.88 88.4893 20.744 88.5733 18H80.5373C79.8933 19.932 78.7453 23.264 77.5693 26.624C77.2613 27.576 76.9253 28.78 76.5893 29.984H76.5053C76.1973 28.78 75.8613 27.52 75.5813 26.596C74.2933 23.18 73.2293 19.96 72.5853 18H63.8213C63.8773 20.744 63.9053 23.88 63.9053 28.472C63.9053 32.924 63.8773 35.976 63.7933 39H69.6453C69.5613 35.808 69.5053 33.26 69.4773 29.732C69.4493 28.192 69.3653 26.736 69.3093 25.224L69.4493 25.196C69.8693 26.708 70.3453 28.276 70.7653 29.452L74.3773 39H77.3453L80.8733 29.676C81.2653 28.528 81.7413 26.932 82.1613 25.336L82.3293 25.364C82.2453 26.876 82.1613 28.444 82.1613 29.816C82.1333 33.288 82.0773 35.752 81.9373 39H88.6013ZM99.2908 35.136C97.7788 35.136 97.2468 34.66 97.2468 33.456C97.2468 32.28 98.0028 31.776 99.7388 31.776C100.551 31.776 101.335 31.804 102.063 31.888C102.063 34.044 100.999 35.136 99.2908 35.136ZM102.091 29.592C101.195 29.452 100.019 29.424 98.7588 29.424C93.5508 29.424 91.1427 30.88 91.1427 34.52C91.1427 38.076 93.0468 39.252 96.6028 39.252C99.4868 39.252 101.363 38.244 102.063 36.088H102.231C102.203 36.62 102.175 37.152 102.175 37.572C102.175 38.888 102.371 39 103.519 39H108.783C108.531 38.244 108.391 35.864 108.391 33.932C108.391 31.804 108.475 30.152 108.475 27.8C108.475 23.628 106.067 21.248 100.019 21.248C93.8028 21.248 91.4508 23.908 91.6748 28.64C92.4308 28.528 93.6628 28.528 94.8668 28.528C95.8748 28.528 96.8548 28.528 97.5268 28.584C97.4147 26.764 98.1988 26.064 99.8788 26.064C101.475 26.064 102.091 26.792 102.091 28.192V29.592ZM110.383 21.556C110.439 23.04 110.411 25.28 110.411 26.876L112.119 26.904C112.091 29.116 112.063 31.216 112.063 32.812C112.063 36.676 113.715 39.224 119.399 39.224C121.471 39.224 122.843 39 124.495 38.58C124.271 36.872 123.963 34.436 123.879 32.672C123.011 33.008 121.891 33.204 120.575 33.204C119.007 33.204 118.447 32.728 118.447 31.468C118.447 29.872 118.447 28.388 118.475 26.988C120.743 27.016 122.871 27.072 123.991 27.1C123.963 25.336 124.047 23.292 124.103 21.556C122.507 21.584 120.547 21.612 118.559 21.612C118.587 20.436 118.643 19.316 118.671 18.252C117.663 18.308 116.515 18.308 115.423 18.308C114.331 18.308 113.211 18.308 112.203 18.252C112.203 19.232 112.203 20.38 112.175 21.584L110.383 21.556ZM134.942 25.224C136.734 25.224 137.406 26.008 137.406 28.136C137.406 28.416 137.406 28.668 137.378 28.892C135.558 28.92 133.738 28.92 132.114 28.892C132.338 25.896 133.234 25.224 134.942 25.224ZM140.15 33.176C139.03 33.176 138.05 33.148 137.378 33.092C137.35 34.52 136.818 35.22 135.026 35.22C133.066 35.22 132.226 34.352 132.086 31.608C133.206 31.58 134.774 31.58 136.482 31.58C138.806 31.58 141.41 31.58 143.146 31.636C143.23 30.88 143.286 29.76 143.286 28.332C143.286 23.74 141.438 21.192 135.054 21.192C129.034 21.192 125.786 23.6 125.786 30.32C125.786 36.704 128.81 39.364 134.858 39.364C141.97 39.364 143.37 37.152 143.23 33.092C142.362 33.148 141.326 33.176 140.15 33.176Z" fill="#050038"/>
</svg>