<svg width="" height="" viewBox="0 0 1440 245" fill="none" xmlns="http://www.w3.org/2000/svg">
    <path d="M0 21.3005L48 16.0005C96 10.3005 192 0.300488 288 0.000488281C384 0.300488 480 10.3005 576 37.3005C672 64.3005 768 106.3 864 101.3C960 96.3005 1056 42.3005 1152 26.6005C1248 10.3005 1344 32.3005 1392 42.6005L1440 53.3005V245.3H1392C1344 245.3 1248 245.3 1152 245.3C1056 245.3 960 245.3 864 245.3C768 245.3 672 245.3 576 245.3C480 245.3 384 245.3 288 245.3C192 245.3 96 245.3 48 245.3H0V21.3005Z" fill="#F9F9F9"/>
</svg>